<svg width="1024" height="450" xmlns="http://www.w3.org/2000/svg" xmlns:xlink="http://www.w3.org/1999/xlink" version="1.1" baseProfile="full" viewBox="0 0 1024 450">
<rect width="1024" height="450" x="0" y="0" id="0" fill="#FFFFFF"></rect>
<path d="M102.4 380.5L921.6 380.5" fill="none" stroke="#E0E6F1"></path>
<path d="M102.4 316.5L921.6 316.5" fill="none" stroke="#E0E6F1"></path>
<path d="M102.4 252.5L921.6 252.5" fill="none" stroke="#E0E6F1"></path>
<path d="M102.4 188.5L921.6 188.5" fill="none" stroke="#E0E6F1"></path>
<path d="M102.4 124.5L921.6 124.5" fill="none" stroke="#E0E6F1"></path>
<path d="M102.4 60.5L921.6 60.5" fill="none" stroke="#E0E6F1"></path>
<text dominant-baseline="central" text-anchor="middle" style="font-size:12px;font-family:sans-serif;" xml:space="preserve" y="-6" transform="matrix(0,1,-1,0,971.6,220)" fill="#6E7079">Gitee StarChar</text>
<path d="M102.4 380.5L921.6 380.5" fill="none" stroke="#6E7079" stroke-linecap="round"></path>
<path d="M102.5 380L102.5 385" fill="none" stroke="#6E7079"></path>
<path d="M186.5 380L186.5 385" fill="none" stroke="#6E7079"></path>
<path d="M271.5 380L271.5 385" fill="none" stroke="#6E7079"></path>
<path d="M355.5 380L355.5 385" fill="none" stroke="#6E7079"></path>
<path d="M439.5 380L439.5 385" fill="none" stroke="#6E7079"></path>
<path d="M523.5 380L523.5 385" fill="none" stroke="#6E7079"></path>
<path d="M607.5 380L607.5 385" fill="none" stroke="#6E7079"></path>
<path d="M692.5 380L692.5 385" fill="none" stroke="#6E7079"></path>
<path d="M776.5 380L776.5 385" fill="none" stroke="#6E7079"></path>
<path d="M860.5 380L860.5 385" fill="none" stroke="#6E7079"></path>
<path d="M921.5 380L921.5 385" fill="none" stroke="#6E7079"></path>
<text dominant-baseline="central" text-anchor="start" style="font-size:12px;font-family:sans-serif;" transform="translate(929.6 380)" fill="#6E7079">0</text>
<text dominant-baseline="central" text-anchor="start" style="font-size:12px;font-family:sans-serif;" transform="translate(929.6 316)" fill="#6E7079">50</text>
<text dominant-baseline="central" text-anchor="start" style="font-size:12px;font-family:sans-serif;" transform="translate(929.6 252)" fill="#6E7079">100</text>
<text dominant-baseline="central" text-anchor="start" style="font-size:12px;font-family:sans-serif;" transform="translate(929.6 188)" fill="#6E7079">150</text>
<text dominant-baseline="central" text-anchor="start" style="font-size:12px;font-family:sans-serif;" transform="translate(929.6 124)" fill="#6E7079">200</text>
<text dominant-baseline="central" text-anchor="start" style="font-size:12px;font-family:sans-serif;" transform="translate(929.6 60)" fill="#6E7079">250</text>
<text dominant-baseline="central" text-anchor="middle" style="font-size:12px;font-family:sans-serif;" y="6" transform="translate(106.228 388)" fill="#6E7079">2022-05-30</text>
<text dominant-baseline="central" text-anchor="middle" style="font-size:12px;font-family:sans-serif;" y="6" transform="translate(190.4449 388)" fill="#6E7079">2022-07-13</text>
<text dominant-baseline="central" text-anchor="middle" style="font-size:12px;font-family:sans-serif;" y="6" transform="translate(274.6617 388)" fill="#6E7079">2022-08-11</text>
<text dominant-baseline="central" text-anchor="middle" style="font-size:12px;font-family:sans-serif;" y="6" transform="translate(358.8785 388)" fill="#6E7079">2022-09-01</text>
<text dominant-baseline="central" text-anchor="middle" style="font-size:12px;font-family:sans-serif;" y="6" transform="translate(443.0953 388)" fill="#6E7079">2022-10-03</text>
<text dominant-baseline="central" text-anchor="middle" style="font-size:12px;font-family:sans-serif;" y="6" transform="translate(527.3121 388)" fill="#6E7079">2022-11-09</text>
<text dominant-baseline="central" text-anchor="middle" style="font-size:12px;font-family:sans-serif;" y="6" transform="translate(611.529 388)" fill="#6E7079">2022-11-28</text>
<text dominant-baseline="central" text-anchor="middle" style="font-size:12px;font-family:sans-serif;" y="6" transform="translate(695.7458 388)" fill="#6E7079">2022-12-29</text>
<text dominant-baseline="central" text-anchor="middle" style="font-size:12px;font-family:sans-serif;" y="6" transform="translate(779.9626 388)" fill="#6E7079">2023-02-21</text>
<text dominant-baseline="central" text-anchor="middle" style="font-size:12px;font-family:sans-serif;" y="6" transform="translate(864.1794 388)" fill="#6E7079">2023-03-22</text>
<g clip-path="url(#zr0-c0)">
<path d="M106.2 377.4C106.2 377.4 110.2 376.4 113.9 374.9C117.8 373.2 117.5 372.4 121.5 371C125.2 369.8 125.4 370.7 129.2 369.8C133.1 368.8 133 368.5 136.9 367.2C140.7 365.9 140.6 365.6 144.5 364.6C148.3 363.7 148.7 364.6 152.2 363.4C156.3 361.8 155.7 360.3 159.8 358.2C163.4 356.4 163.8 357.2 167.5 355.7C171.4 354 171.1 353.2 175.1 351.8C178.8 350.6 179 351.5 182.8 350.6C186.7 349.6 186.6 349.3 190.4 348C194.3 346.7 194.2 346.4 198.1 345.4C201.9 344.5 201.9 344.8 205.8 344.2C209.6 343.5 209.7 343.8 213.4 342.9C217.3 341.9 217.2 341.3 221.1 340.3C224.8 339.4 225.1 340.3 228.7 339C232.7 337.7 232.4 336.5 236.4 335.2C240 334 240.8 335.2 244 333.9C248.5 332.1 247.2 328 251.7 326.2C254.9 325 255.5 325.6 259.3 325C263.2 324.3 263.2 324.3 267 323.7C270.8 323 273.4 323.7 274.7 322.4C281.1 315.9 275.9 290.5 282.3 284C283.6 282.7 286.2 283.7 290 282.7C293.9 281.7 293.7 281.1 297.6 280.2C301.4 279.2 301.5 279.8 305.3 278.9C309.2 277.9 309 277.3 312.9 276.3C316.7 275.4 316.8 275.7 320.6 275C324.4 274.4 324.5 274.7 328.3 273.8C332.2 272.8 332 272.2 335.9 271.2C339.7 270.3 339.7 270.6 343.6 269.9C347.4 269.3 347.5 269.6 351.2 268.6C355.1 267.7 355 267.1 358.9 266.1C362.6 265.1 363.2 266.1 366.5 264.8C370.8 263.2 369.9 260 374.2 258.4C377.5 257.1 379.2 258.4 381.8 257.1C386.9 254.7 384.5 246.8 389.5 244.3C392.1 243 393.4 244 397.2 243C401.1 242.1 400.9 241.5 404.8 240.5C408.6 239.5 408.6 239.8 412.5 239.2C416.3 238.6 416.4 238.9 420.1 237.9C424 236.9 423.9 236.3 427.8 235.4C431.5 234.4 431.6 234.7 435.4 234.1C439.3 233.4 439.3 233.4 443.1 232.8C446.9 232.2 446.9 232.2 450.8 231.5C454.6 230.9 454.6 230.9 458.4 230.2C462.2 229.6 462.2 229.6 466.1 229C469.9 228.3 469.9 228.3 473.7 227.7C477.5 227 477.5 227 481.4 226.4C485.2 225.8 485.2 225.8 489 225.1C492.9 224.5 492.9 224.5 496.7 223.8C500.5 223.2 500.5 223.2 504.3 222.6C508.2 221.9 508.2 221.9 512 221.3C515.8 220.6 516.3 221.3 519.7 220C524 218.4 523.5 216.8 527.3 213.6C531.1 210.4 531 210.2 535 207.2C538.6 204.4 538.5 203.6 542.6 202.1C546.1 200.8 546.5 201.4 550.3 200.8C554.1 200.2 554.1 200.2 557.9 199.5C561.8 198.9 561.8 199.2 565.6 198.2C569.5 197.3 569.3 196.7 573.2 195.7C577 194.7 577.2 195.3 580.9 194.4C584.8 193.4 584.7 192.8 588.6 191.8C592.3 190.9 592.4 191.2 596.2 190.6C600 189.9 600 189.9 603.9 189.3C607.7 188.6 607.7 188.6 611.5 188C615.4 187.4 615.4 187.4 619.2 186.7C623 186.1 623.3 186.7 626.8 185.4C631 183.9 630.3 181.8 634.5 180.3C638 179 638.3 179.7 642.2 179C646 178.4 646 178.4 649.8 177.8C653.6 177.1 653.6 177.1 657.5 176.5C661.3 175.8 661.3 175.8 665.1 175.2C668.9 174.6 668.9 174.6 672.8 173.9C676.6 173.3 676.6 173.3 680.4 172.6C684.3 172 684.3 172 688.1 171.4C691.9 170.7 691.9 170.7 695.7 170.1C699.6 169.4 699.6 169.4 703.4 168.8C707.2 168.2 707.2 168.2 711.1 167.5C714.9 166.9 714.9 166.9 718.7 166.2C722.5 165.6 722.7 166.2 726.4 165C730.4 163.6 730 162.5 734 161.1C737.7 159.9 737.9 160.5 741.7 159.8C745.5 159.2 745.6 159.5 749.3 158.6C753.2 157.6 753.6 158 757 156C761.2 153.5 760.3 151.2 764.7 149.6C768 148.3 768.5 149 772.3 148.3C776.1 147.7 776.1 147.7 780 147C783.8 146.4 783.8 146.4 787.6 145.8C791.4 145.1 791.4 145.1 795.3 144.5C799.1 143.8 799.1 143.8 802.9 143.2C806.8 142.6 807.1 143.2 810.6 141.9C814.7 140.4 814.2 138.8 818.2 136.8C821.8 135 822.1 135.5 825.9 134.2C829.7 133 830.9 134.2 833.6 131.7C838.5 127 837.2 125.2 841.2 118.9C844.9 113 844.1 112.1 848.9 107.4C851.8 104.4 852.7 105.4 856.5 103.5C860.4 101.6 860.4 101.6 864.2 99.7C868 97.8 867.9 97.5 871.8 95.8C875.6 94.3 875.7 94.6 879.5 93.3C883.3 92 883.9 92.9 887.1 90.7C891.5 87.8 890.3 84.8 894.8 83C898 81.8 898.7 82.7 902.5 81.8C906.4 80.8 906.2 80.2 910.1 79.2C913.9 78.3 917.8 77.9 917.8 77.9" fill="none" stroke="#5470c6" stroke-width="2" stroke-linejoin="bevel"></path>
</g>
<defs >
<clipPath id="zr0-c0">
<path d="M101 59l821 0l0 322l-821 0Z" fill="#000"></path>
</clipPath>
</defs>
</svg>